If you must download and send. Keep active torrents for other! Thanks
Se si scarica devi inviare. Mantenere torrents attivi per altri! Grazie
Daca descarci trebuie sa trimiti. Pastreaza torrentul activ si pentru alti! Mersi
---------------------------------------------------------------------------------

THANKS TO: zuzuzuzuzu

   General
     Looney Tunes Golden Collection. Disc 1 [multi.language] H264_MarGelaTu.mp4
      Format : MPEG-4
      Format profile : Base Media / Version 2
      Codec ID : mp42
      File size : 920 MiB
      Duration : 1h 42mn
      Overall bit rate : 1 252 Kbps
      Encoded date : UTC 2010-03-23 20:11:13
      Tagged date : UTC 2010-03-23 21:02:55
     
   Video #1
      ID : 1
      Format : AVC
      Format/Info : Advanced Video Codec
      Format profile : High@L3.0
      Format settings, CABAC : Yes
      Format settings, ReFrames : 3 frames
      Codec ID : avc1
      Codec ID/Info : Advanced Video Coding
      Duration : 1h 42mn
      Bit rate mode : Variable
      Bit rate : 1 000 Kbps
      Width : 720 pixels
      Height : 544 pixels
      Display aspect ratio : 4:3
      Frame rate mode : Constant
      Frame rate : 25.000 fps
      Resolution : 24 bits
      Colorimetry : 4:2:0
      Scan type : Progressive
      Bits/(Pixel*Frame) : 0.102
      Stream size : 735 MiB (80%)
      Writing library : x264 core 79
     
   Audio #2
      ID : 2
      Format : AAC
      Format/Info : Advanced Audio Codec
      Format version : Version 4
      Format profile : LC
      Format settings, SBR : No
      Format settings, PS : Yes
      Codec ID : 40
      Duration : 1h 42mn
      Bit rate mode : Variable
      Bit rate : 79.0 Kbps
      Maximum bit rate : 101 Kbps
      Channel(s) : 2 channels
      Channel positions : Front: L R
      Sampling rate : 48.0 KHz
      Resolution : 16 bits
      Stream size : 58.1 MiB (6%)
      Language : English
      Encoded date : UTC 2010-03-23 20:11:13
      Tagged date : UTC 2010-03-23 21:02:55
   Audio #3
      ID : 3
      Format : AAC
      Format/Info : Advanced Audio Codec
      Format version : Version 4
      Format profile : LC
      Format settings, SBR : No
      Format settings, PS : Yes
      Codec ID : 40
      Duration : 1h 42mn
      Bit rate mode : Variable
      Bit rate : 82.7 Kbps
      Maximum bit rate : 120 Kbps
      Channel(s) : 2 channels
      Channel positions : Front: L R
      Sampling rate : 48.0 KHz
      Resolution : 16 bits
      Stream size : 60.8 MiB (7%)
      Language : Italian
      Encoded date : UTC 2010-03-23 20:11:13
      Tagged date : UTC 2010-03-23 21:02:55
   Audio #4
      ID : 4
      Format : AAC
      Format/Info : Advanced Audio Codec
      Format version : Version 4
      Format profile : LC
      Format settings, SBR : No
      Format settings, PS : Yes
      Codec ID : 40
      Duration : 1h 42mn
      Bit rate mode : Variable
      Bit rate : 82.7 Kbps
      Maximum bit rate : 128 Kbps
      Channel(s) : 2 channels
      Channel positions : Front: L R
      Sampling rate : 48.0 KHz
      Resolution : 16 bits
      Stream size : 60.8 MiB (7%)
      Language : Romanian
      Encoded date : UTC 2010-03-23 20:11:13
      Tagged date : UTC 2010-03-23 21:02:55